<?xml version="1.0" standalone="no"?>
<!DOCTYPE svg PUBLIC "-//W3C//DTD SVG 20010904//EN"
 "http://www.w3.org/TR/2001/REC-SVG-20010904/DTD/svg10.dtd">
<svg version="1.0" xmlns="http://www.w3.org/2000/svg"
 width="642.000000pt" height="642.000000pt" viewBox="0 0 642.000000 642.000000"
 preserveAspectRatio="xMidYMid meet">
<metadata>
Created by potrace 1.11, written by Peter Selinger 2001-2013
</metadata>
<g transform="translate(0.000000,642.000000) scale(0.100000,-0.100000)"
fill="#000000" stroke="none">
<path d="M3028 6416 c-1 -2 -43 -6 -93 -10 -287 -20 -641 -104 -925 -220 -126
-52 -355 -164 -400 -196 -15 -11 -31 -20 -33 -20 -11 0 -142 -84 -232 -149
-154 -110 -243 -186 -404 -341 -20 -20 -74 -78 -121 -130 -47 -52 -87 -97 -90
-100 -27 -27 -163 -216 -215 -299 -6 -9 -22 -34 -36 -56 -167 -259 -357 -730
-405 -1005 -3 -14 -7 -32 -9 -40 -3 -8 -7 -33 -10 -55 -4 -22 -8 -47 -10 -55
-3 -8 -7 -37 -10 -65 -3 -27 -8 -61 -10 -75 -13 -69 -20 -215 -20 -405 1 -187
5 -270 20 -378 2 -18 6 -50 9 -72 6 -45 9 -59 37 -200 11 -55 25 -114 30 -131
5 -17 11 -40 14 -50 35 -167 199 -559 321 -769 80 -136 243 -366 329 -465 307
-352 616 -592 1015 -790 276 -136 550 -231 800 -276 14 -2 35 -7 48 -9 41 -10
225 -36 302 -43 170 -16 543 -7 705 17 235 35 419 78 600 141 330 115 632 271
872 452 53 40 108 82 122 92 125 94 390 364 507 516 158 206 317 470 403 670
13 30 31 71 39 90 9 19 17 44 19 54 2 11 7 24 12 30 12 15 74 207 105 326 27
104 62 270 71 347 4 26 8 59 11 73 18 113 26 524 12 670 -6 60 -8 81 -23 180
-3 19 -8 53 -11 75 -3 22 -10 56 -14 75 -5 19 -12 51 -15 70 -18 110 -92 351
-160 519 -171 426 -416 789 -750 1112 -123 119 -150 142 -290 248 -336 254
-747 452 -1145 550 -134 34 -312 68 -390 76 -30 3 -68 7 -85 10 -33 6 -491 15
-497 11z"/>
</g>
</svg>
