<svg width="126" height="72" viewBox="0 0 126 72" fill="none" xmlns="http://www.w3.org/2000/svg">
<path d="M0 14.26H2.42V8.16H4.02L7.78 14.26H10.76L6.08 6.98L10.54 0.26H7.62L4.02 5.9H2.42V0.26H0V14.26Z" fill="white"/>
<path d="M16.8516 14.26H19.2716V8.96H20.9516L23.9516 14.26H26.8716L23.3716 8.64C25.2716 8.06 26.2916 6.48 26.2916 4.52C26.2916 1.98 24.4116 0.26 21.5116 0.26H16.8516V14.26ZM19.2716 6.78V2.5H21.4316C23.0316 2.5 23.8116 3.42 23.8116 4.56C23.8116 6 22.8316 6.78 21.5316 6.78H19.2716Z" fill="white"/>
<path d="M33.1758 14.26H41.8358V12H35.5958V8.26H40.7958V6.02H35.5958V2.52H41.6358V0.26H33.1758V14.26Z" fill="white"/>
<path d="M57.5853 14.26H60.1453L55.2853 0.26H51.8853L46.9853 14.26H49.4853L50.5053 11.26H56.5653L57.5853 14.26ZM51.2453 9.04L53.4253 2.64H53.6253L55.8053 9.04H51.2453Z" fill="white"/>
<path d="M68.0574 14.26H70.4773V2.52H74.3573V0.26H64.1773V2.52H68.0574V14.26Z" fill="white"/>
<path d="M80.4641 14.26H86.8441V12.06H84.8641V2.48H86.8441V0.26H80.4641V2.48H82.4441V12.06H80.4641V14.26Z" fill="white"/>
<path d="M100.459 14.52C104.579 14.52 107.699 11.36 107.699 7.26C107.699 3.18 104.599 0 100.479 0C96.3591 0 93.2391 3.14 93.2391 7.26C93.2391 11.4 96.3391 14.52 100.459 14.52ZM100.479 12.2C97.7591 12.2 95.7591 10.12 95.7591 7.26C95.7591 4.44 97.7591 2.32 100.479 2.32C103.159 2.32 105.179 4.44 105.179 7.26C105.179 10.12 103.159 12.2 100.479 12.2Z" fill="white"/>
<path d="M114.309 14.26H116.729V2.64H116.909L121.349 14.26H125.469V0.26H123.069V11.9H122.909L118.389 0.26H114.309V14.26Z" fill="white"/>
<path d="M0 42.7795H2.42V36.6795H4.02L7.78 42.7795H10.76L6.08 35.4995L10.54 28.7795H7.62L4.02 34.4195H2.42V28.7795H0V42.7795Z" fill="white"/>
<path d="M25.9916 42.7795H28.5516L23.6916 28.7795H20.2916L15.3916 42.7795H17.8916L18.9116 39.7795H24.9716L25.9916 42.7795ZM19.6516 37.5595L21.8316 31.1595H22.0316L24.2116 37.5595H19.6516Z" fill="white"/>
<path d="M34.4844 42.7795H36.9044V37.4795H38.5844L41.5844 42.7795H44.5044L41.0044 37.1595C42.9044 36.5795 43.9244 34.9995 43.9244 33.0395C43.9244 30.4995 42.0444 28.7795 39.1444 28.7795H34.4844V42.7795ZM36.9044 35.2995V31.0195H39.0644C40.6644 31.0195 41.4444 31.9395 41.4444 33.0795C41.4444 34.5195 40.4644 35.2995 39.1644 35.2995H36.9044Z" fill="white"/>
<path d="M55.0886 43.0395C58.2886 43.0395 60.1486 41.1795 60.1486 38.8795C60.1486 33.2195 52.7686 35.5995 52.7686 32.4795C52.7686 31.6195 53.4286 30.7595 55.0286 30.7595C56.5286 30.7595 57.4286 31.6395 57.4286 32.9395H59.8686C59.8686 29.7395 57.3686 28.5195 55.0286 28.5195C52.0286 28.5195 50.3486 30.3795 50.3486 32.4795C50.3486 38.1195 57.6686 35.4795 57.6686 38.9195C57.6686 40.0195 56.6886 40.7395 55.1886 40.7395C53.5086 40.7395 52.3486 39.7195 52.3486 38.2595H49.9086C49.9086 41.1195 52.2086 43.0395 55.0886 43.0395Z" fill="white"/>
<path d="M69.5222 42.7795H71.9422V31.0395H75.8222V28.7795H65.6422V31.0395H69.5222V42.7795Z" fill="white"/>
<path d="M82.1289 42.7795H90.7889V40.5195H84.5489V36.7795H89.7489V34.5395H84.5489V31.0395H90.5889V28.7795H82.1289V42.7795Z" fill="white"/>
<path d="M97.3984 42.7795H99.8184V31.1595H99.9984L104.438 42.7795H108.558V28.7795H106.158V40.4195H105.998L101.478 28.7795H97.3984V42.7795Z" fill="white"/>
<path d="M0 71.0391H2.42V64.9391H4.02L7.78 71.0391H10.76L6.08 63.7591L10.54 57.0391H7.62L4.02 62.6791H2.42V57.0391H0V71.0391Z" fill="white"/>
<path d="M16.8516 71.0391H19.2716V65.7391H20.9516L23.9516 71.0391H26.8716L23.3716 65.4191C25.2716 64.8391 26.2916 63.2591 26.2916 61.2991C26.2916 58.7591 24.4116 57.0391 21.5116 57.0391H16.8516V71.0391ZM19.2716 63.5591V59.2791H21.4316C23.0316 59.2791 23.8116 60.1991 23.8116 61.3391C23.8116 62.7791 22.8316 63.5591 21.5316 63.5591H19.2716Z" fill="white"/>
<path d="M33.1758 71.0391H41.8358V68.7791H35.5958V65.0391H40.7958V62.7991H35.5958V59.2991H41.6358V57.0391H33.1758V71.0391Z" fill="white"/>
<path d="M48.4453 71.0391H50.8653V65.0591H57.0453V71.0391H59.4653V57.0391H57.0453V62.7991H50.8653V57.0391H48.4453V71.0391Z" fill="white"/>
</svg>
