<svg xmlns="http://www.w3.org/2000/svg" viewBox="0 0 187.57 83.64"><defs><style>.cls-1{fill:#fff;}</style></defs><title>LogoKreationKarstenKreh</title><g id="Ebene_2" data-name="Ebene 2"><g id="Ebene_1-2" data-name="Ebene 1"><path class="cls-1" d="M2.6,5.94,7.5.3h3.28L5.14,6.46l5.94,7.18H7.64l-4.74-6L2.6,8v5.68H0V.3H2.6Z"/><path class="cls-1" d="M30.26.3a5,5,0,0,1,3.41,1A3.79,3.79,0,0,1,35,4.3a3.63,3.63,0,0,1-1.57,3.14A3.7,3.7,0,0,1,32,8l4.17,5.62H32.89L29.32,8.28H29v5.36H26.4V.3ZM29,6.44h.74c.51,0,2.56-.06,2.56-2s-2-2-2.52-2H29Z"/><path class="cls-1" d="M59.29,2.54H54.48v3h4.6V7.76h-4.6V11.4h4.81v2.24H51.88V.3h7.41Z"/><path class="cls-1" d="M83.7,10.84H78.32l-1.18,2.8H74.32L80.06.3h2l5.59,13.34H84.88Zm-.76-2.12L81,3.92l-1.9,4.8Z"/><path class="cls-1" d="M106.76,2.54v11.1h-2.6V2.54h-3V.3h8.6V2.54Z"/><path class="cls-1" d="M130,.3V13.64h-2.6V.3Z"/><path class="cls-1" d="M160.65,7A7.13,7.13,0,0,1,146.4,7a7.13,7.13,0,0,1,14.25,0ZM158,7a4.45,4.45,0,1,0-8.89,0A4.45,4.45,0,1,0,158,7Z"/><path class="cls-1" d="M175,13.64V.3h1.8L185,9.2V.3h2.61V13.64h-1.81l-8.12-8.92v8.92Z"/><path class="cls-1" d="M2.6,40.94,7.5,35.3h3.28L5.14,41.46l5.94,7.18H7.64l-4.74-6-.3.3v5.68H0V35.3H2.6Z"/><path class="cls-1" d="M33.62,45.84H28.24l-1.18,2.8H24.24L30,35.3h2L37.6,48.64H34.8Zm-.76-2.12L31,38.92l-1.9,4.8Z"/><path class="cls-1" d="M56.72,35.3a4.89,4.89,0,0,1,3.4,1,3.76,3.76,0,0,1,1.32,3,3.64,3.64,0,0,1-1.55,3.14,3.83,3.83,0,0,1-1.46.58l4.16,5.62H59.35l-3.57-5.36h-.32v5.36h-2.6V35.3Zm-1.26,6.14h.74c.5,0,2.57-.06,2.57-2s-2.05-2-2.53-2h-.78Z"/><path class="cls-1" d="M84.9,38.34a2.61,2.61,0,0,0-2.18-1.14c-1.4,0-1.84.88-1.84,1.56a1.12,1.12,0,0,0,.42.9,4.55,4.55,0,0,0,1.6.76,7.67,7.67,0,0,1,2.7,1.34,3.63,3.63,0,0,1,1.15,2.8,4.3,4.3,0,0,1-4.65,4.38,5.49,5.49,0,0,1-4.6-2.52l1.7-1.62A3.13,3.13,0,0,0,82,46.58a1.87,1.87,0,0,0,2.06-1.84,1.55,1.55,0,0,0-.52-1.2,6,6,0,0,0-2.06-1,6.42,6.42,0,0,1-2.22-1.16,3.1,3.1,0,0,1-1.06-2.48c0-2,1.32-3.92,4.28-3.92a5.16,5.16,0,0,1,3.79,1.56Z"/><path class="cls-1" d="M107.49,37.54v11.1h-2.6V37.54h-3V35.3h8.6v2.24Z"/><path class="cls-1" d="M134.06,37.54h-4.8v3h4.6v2.24h-4.6V46.4h4.8v2.24h-7.4V35.3h7.4Z"/><path class="cls-1" d="M150.58,48.64V35.3h1.8l8.13,8.9V35.3h2.59V48.64h-1.79l-8.13-8.92v8.92Z"/><path class="cls-1" d="M2.6,75.94,7.5,70.3h3.28L5.14,76.46l5.94,7.18H7.64l-4.74-6-.3.3v5.68H0V70.3H2.6Z"/><path class="cls-1" d="M30,70.3a4.91,4.91,0,0,1,3.4,1,3.79,3.79,0,0,1,1.32,3,3.64,3.64,0,0,1-1.56,3.14,3.7,3.7,0,0,1-1.46.58l4.16,5.62H32.64l-3.56-5.36h-.32v5.36h-2.6V70.3Zm-1.26,6.14h.74c.5,0,2.56-.06,2.56-2s-2-2-2.52-2h-.78Z"/><path class="cls-1" d="M58.45,72.54h-4.8v3h4.6v2.24h-4.6V81.4h4.8v2.24h-7.4V70.3h7.4Z"/><path class="cls-1" d="M77.57,75.46h5.64V70.3h2.6V83.64h-2.6V77.7H77.57v5.94H75V70.3h2.6Z"/></g></g></svg>