<svg xmlns="http://www.w3.org/2000/svg" width="345.068" height="345.068" viewBox="0 0 345.068 345.068">
  <g id="Gruppe_1420" data-name="Gruppe 1420" transform="translate(-1205.466 -3142.466)">
    <rect id="Rechteck_663" data-name="Rechteck 663" width="244" height="244" rx="5" transform="translate(1205.466 3315) rotate(-45)" fill="#292929"/>
    <g id="Gruppe_1410" data-name="Gruppe 1410" transform="translate(2319.903 7540.26)">
      <g id="Gruppe_1407" data-name="Gruppe 1407" transform="translate(-943.118 -4234.635)">
        <path id="Pfad_669" data-name="Pfad 669" d="M-630.217-4109.148a3.6,3.6,0,0,1-3.6-3.6v-12.4a5.745,5.745,0,0,0-1.534-4.485,5.862,5.862,0,0,0-3.66-1.3,5.861,5.861,0,0,0-3.66,1.3,5.745,5.745,0,0,0-1.535,4.485v12.4a3.6,3.6,0,0,1-3.6,3.6h0a3.6,3.6,0,0,1-3.6-3.6v-13.581a9.662,9.662,0,0,1,3.128-7.851c2.361-2.065,6.138-2.892,9.267-2.892s6.906.826,9.267,2.892a9.661,9.661,0,0,1,3.128,7.851v13.581a3.6,3.6,0,0,1-3.6,3.6Z" transform="translate(651.407 4137.071)" fill="#fff"/>
      </g>
      <g id="Gruppe_1408" data-name="Gruppe 1408" transform="translate(-973.904 -4218.852)">
        <path id="Pfad_670" data-name="Pfad 670" d="M-855.288-4032.55v1.681c0,.146,0,.292.006.444v-2.125Z" transform="translate(855.288 4032.55)" fill="#fff"/>
      </g>
      <path id="Pfad_671" data-name="Pfad 671" d="M-952.62-4235.62a3.5,3.5,0,0,1,3.511,3.492c0,5.349,0,14.958,0,14.958a9.659,9.659,0,0,1-3.128,7.848,9.881,9.881,0,0,1-2.627,1.612,17.225,17.225,0,0,1-6.643,1.282,17.225,17.225,0,0,1-6.643-1.282,9.882,9.882,0,0,1-2.627-1.612,9.415,9.415,0,0,1-3.122-7.4v-23.281a6.378,6.378,0,0,0-.767-3.541,4.485,4.485,0,0,0-4.137-1.947,4.5,4.5,0,0,0-4.073,1.947,6.838,6.838,0,0,0-.825,3.541v5.17a1.03,1.03,0,0,0,1.029,1.029h2.873a3.071,3.071,0,0,1,3.071,3.07h0a3.071,3.071,0,0,1-3.071,3.071h-2.873a1.029,1.029,0,0,0-1.029,1.029v16.324a3.6,3.6,0,0,1-3.6,3.6h0a3.6,3.6,0,0,1-3.6-3.6v-16.324a1.029,1.029,0,0,0-1.029-1.029h0a3.071,3.071,0,0,1-3.071-3.071h0a3.07,3.07,0,0,1,3.071-3.07h0a1.029,1.029,0,0,0,1.029-1.029v-5.348c0-2.652-.057-4.9,1.891-7.55,1.891-2.538,5.31-4.251,10.208-4.251,3.248,0,7.968.706,10.329,4.251,1.948,2.886,1.776,5.666,1.776,7.55v22.361a5.355,5.355,0,0,0,1.529,3.958,5.867,5.867,0,0,0,3.661,1.3,5.867,5.867,0,0,0,3.661-1.3,5.752,5.752,0,0,0,1.535-4.484s0-8.609,0-13.67a3.6,3.6,0,0,1,3.6-3.6Z" transform="translate(0)" fill="#fff"/>
      <path id="Pfad_672" data-name="Pfad 672" d="M-739.133-4231.648a4.332,4.332,0,0,0-4.308,4.308,4.332,4.332,0,0,0,4.308,4.308,4.332,4.332,0,0,0,4.308-4.308A4.332,4.332,0,0,0-739.133-4231.648Z" transform="translate(-213.574 -17.267)" fill="#fff"/>
      <path id="Pfad_673" data-name="Pfad 673" d="M-439.39-4247.594v21.554a.94.94,0,0,0,1.6.672l7.041-6.868a3.174,3.174,0,0,1,2.216-.9h0a3.173,3.173,0,0,1,2.169,5.49l-5.2,4.87a1.285,1.285,0,0,0-.083,1.791l8.251,9.305a3.551,3.551,0,0,1-2.647,5.918h0a3.551,3.551,0,0,1-2.683-1.224l-8.97-10.443a.94.94,0,0,0-1.553.189h0a.944.944,0,0,0-.1.368c-.022.359-.034,1.029-.034,1.13v6.1a3.6,3.6,0,0,1-3.6,3.6h0a3.6,3.6,0,0,1-3.6-3.6v-37.955a3.6,3.6,0,0,1,3.6-3.6h0A3.6,3.6,0,0,1-439.39-4247.594Z" transform="translate(-465.6 -0.673)" fill="#fff"/>
    </g>
  </g>
</svg>
