<svg xmlns="http://www.w3.org/2000/svg" width="345.068" height="345.068" viewBox="0 0 345.068 345.068">
  <g id="Gruppe_1419" data-name="Gruppe 1419" transform="translate(-1205 -4582)">
    <rect id="Rechteck_665" data-name="Rechteck 665" width="244" height="244" rx="5" transform="translate(1205 4754.534) rotate(-45)" fill="#292929"/>
    <g id="Gruppe_1417" data-name="Gruppe 1417" transform="translate(1307.699 4628)">
      <path id="Pfad_680" data-name="Pfad 680" d="M211.489,120.16v.054a1.519,1.519,0,0,1-2.308,1.3,16.355,16.355,0,0,0-17.671-.021,1.519,1.519,0,0,1-2.305-1.3v-.069a1.524,1.524,0,0,1,.462-1.093,14.734,14.734,0,0,1,21.364.041A1.525,1.525,0,0,1,211.489,120.16Z" transform="translate(-129.839 -7.733)" fill="#fff"/>
      <path id="Pfad_681" data-name="Pfad 681" d="M105.614,111.07a3.7,3.7,0,0,1,3.611-2.893h.094a1.521,1.521,0,0,0,1.521-1.521v-.135A1.521,1.521,0,0,0,109.319,105H98.366a1.521,1.521,0,0,0-1.521,1.521v.135a1.521,1.521,0,0,0,1.521,1.521h0a2.235,2.235,0,0,1,2.181,2.722l-9.009,40.334q-.079-.091-.159-.185a51.275,51.275,0,0,0-4.561-4.649,55.794,55.794,0,0,0-6.639-5.113q-1.309-.859-2.534-1.654-1.482-.963-2.824-1.847a23.85,23.85,0,0,0,5.268-5.75,10.679,10.679,0,0,0,1.343-3.265,11.948,11.948,0,0,0-.268-6.3,9.172,9.172,0,0,0-1.293-2.591,10.4,10.4,0,0,0-4.132-3.377,13.319,13.319,0,0,0-10.355,0,10.4,10.4,0,0,0-4.133,3.377,9.17,9.17,0,0,0-1.292,2.591,11.719,11.719,0,0,0-.551,3.02,11.853,11.853,0,0,0,.282,3.276,10.679,10.679,0,0,0,1.343,3.265,23.882,23.882,0,0,0,5.269,5.75q-1.341.888-2.824,1.847-1.226.8-2.534,1.654A55.794,55.794,0,0,0,54.3,146.4a50.938,50.938,0,0,0-4.561,4.649l-.159.185L40.574,110.9a2.235,2.235,0,0,1,2.181-2.722h.019a1.521,1.521,0,0,0,1.521-1.521v-.135A1.521,1.521,0,0,0,42.774,105H31.822a1.521,1.521,0,0,0-1.521,1.521v.135a1.521,1.521,0,0,0,1.521,1.521H31.9a3.7,3.7,0,0,1,3.611,2.893l10.074,44.9a2.721,2.721,0,0,0,2.655,2.126h1.224a2.239,2.239,0,0,0,1.837-.954A36,36,0,0,1,53.52,154.3a49.013,49.013,0,0,1,10.16-8.848q1.292-.85,2.513-1.641c1.541-1,3-1.951,4.367-2.883,1.369.932,2.828,1.881,4.367,2.883q1.218.791,2.513,1.641a49.071,49.071,0,0,1,10.054,8.726,36.518,36.518,0,0,1,2.324,2.961,2.247,2.247,0,0,0,1.842.962h1.227a2.721,2.721,0,0,0,2.655-2.126ZM70.56,134.8a21.029,21.029,0,0,1-5.3-5.414,6.292,6.292,0,0,1-.875-3.64,5.685,5.685,0,0,1,.89-2.927,6.069,6.069,0,0,1,5.288-2.383,6.073,6.073,0,0,1,5.289,2.383,5.686,5.686,0,0,1,.889,2.927,6.292,6.292,0,0,1-.874,3.64A21.035,21.035,0,0,1,70.56,134.8Z" fill="#fff"/>
    </g>
  </g>
</svg>
