<svg xmlns="http://www.w3.org/2000/svg" width="345.068" height="345.068" viewBox="0 0 345.068 345.068">
  <g id="Gruppe_1418" data-name="Gruppe 1418" transform="translate(-1205.466 -6022.466)">
    <rect id="Rechteck_667" data-name="Rechteck 667" width="244" height="244" rx="5" transform="translate(1205.466 6195) rotate(-45)" fill="#292929"/>
    <path id="Pfad_1" data-name="Pfad 1" d="M65,.208A25.275,25.275,0,0,0,47.7,4.185l-.6.4a1.542,1.542,0,0,0-.4,1.989l.4.6a22.607,22.607,0,0,1,3.579,6.363l.2.8a1.455,1.455,0,0,0,2.187.6l.6-.4a12.634,12.634,0,0,1,20.084,9.346A12.742,12.742,0,0,1,57.244,36.8,12.427,12.427,0,0,1,48.693,25.86C47.5,11.941,38.353.208,24.632.01a24.459,24.459,0,1,0-.2,48.918,24.228,24.228,0,0,0,13.721-4.176,1.329,1.329,0,0,0,.2-1.989,27.186,27.186,0,0,1-3.977-7.556,1.42,1.42,0,0,0-2.187-.6l-.348.248a12.376,12.376,0,0,1-8.8,1.94,12.556,12.556,0,0,1,1.193-25.055c6.96,0,11.533,5.966,12.727,12.727,2.386,14.119,7.755,20.88,18.1,23.663.4.2.994.2,1.392.4h.2c.4,0,.8.2,1.193.2h.4a1.49,1.49,0,0,1,.994.2h3.182A24.483,24.483,0,0,0,85.481,23.673,24.274,24.274,0,0,0,65,.208Z" transform="translate(1334.82 6170.236)" fill="#fff"/>
  </g>
</svg>
