<svg xmlns="http://www.w3.org/2000/svg" width="345.068" height="345.068" viewBox="0 0 345.068 345.068">
  <g id="Gruppe_1421" data-name="Gruppe 1421" transform="translate(-1205.466 -1702.466)">
    <rect id="Rechteck_662" data-name="Rechteck 662" width="244" height="244" rx="5" transform="translate(1205.466 1875) rotate(-45)" fill="#292929"/>
    <g id="Gruppe_1413" data-name="Gruppe 1413" transform="translate(3627.332 5833.385)">
      <g id="Gruppe_1411" data-name="Gruppe 1411" transform="translate(-2260.545 -3975.269)">
        <path id="Pfad_674" data-name="Pfad 674" d="M-2094.478-3939.534h11.539l-10.765-14.059a9.64,9.64,0,0,0,4.739-2.368,9.917,9.917,0,0,0,2.729-7.159,11.3,11.3,0,0,0-2.937-7.725c-2.522-2.627-5.818-3.04-8.394-3.04H-2111l2.1,6.9h8.04a6.05,6.05,0,0,1,4.275,1.338,4.051,4.051,0,0,1,1.185,2.883,4.286,4.286,0,0,1-1.133,2.886,6.7,6.7,0,0,1-4.326,1.39h-6.175Z" transform="translate(2111 3973.885)" fill="#fff"/>
      </g>
      <g id="Gruppe_1412" data-name="Gruppe 1412" transform="translate(-2232.572 -3975.69)">
        <path id="Pfad_675" data-name="Pfad 675" d="M-1983.357-3971.371l-2.1,17.115h-3.057l2.1-17.115H-1991l.359-2.877h12.229l-.36,2.877Z" transform="translate(1991 3974.583)" fill="#fff"/>
        <path id="Pfad_676" data-name="Pfad 676" d="M-1922.84-3971.371h-7.973l-.6,5.066h7.733l-.36,2.877h-7.733l-.779,6.294h7.973l-.359,2.877h-11.03l2.458-19.992h11.03Z" transform="translate(1948.796 3974.583)" fill="#fff"/>
        <path id="Pfad_677" data-name="Pfad 677" d="M-1854.036-3970.655a7.71,7.71,0,0,0-5.485-2.218,7.718,7.718,0,0,0-5.425,2.038,9.063,9.063,0,0,0-2.518,6.475,6.651,6.651,0,0,0,1.739,4.706,6.07,6.07,0,0,0,4.706,1.888,8.749,8.749,0,0,0,5.665-2.308l-.42,3.626a10.7,10.7,0,0,1-5.515,1.5,8.586,8.586,0,0,1-6.564-2.488,9.255,9.255,0,0,1-2.668-6.923,11.194,11.194,0,0,1,3.3-8.273,10.866,10.866,0,0,1,7.913-3.057,12.308,12.308,0,0,1,5.695,1.438Z" transform="translate(1898.605 3975.69)" fill="#fff"/>
      </g>
      <path id="Pfad_678" data-name="Pfad 678" d="M-2270.1-3939.38h-9.79l-4.662-22.441-10.956,22.441H-2306l18.182-34.5h9.324Z" transform="translate(0 -1.388)" fill="#fff"/>
      <path id="Pfad_679" data-name="Pfad 679" d="M-2159.292-3973.885h-9.208l8.858,34.5h9.79Z" transform="translate(-105.448 -1.384)" fill="#fff"/>
    </g>
  </g>
</svg>
